{
	"asset":{
		"copyright":"golxzn",
		"generator":"Khronos glTF Blender I/O v4.3.47",
		"version":"2.0"
	},
	"scene":0,
	"scenes":[
		{
			"name":"Scene",
			"nodes":[
				0
			]
		}
	],
	"nodes":[
		{
			"mesh":0,
			"name":"geometry_0"
		}
	],
	"materials":[
		{
			"name":"Material_0",
			"pbrMetallicRoughness":{
				"baseColorTexture":{
					"index":0
				}
			}
		}
	],
	"meshes":[
		{
			"name":"geometry_0",
			"primitives":[
				{
					"attributes":{
						"POSITION":0,
						"NORMAL":1,
						"TEXCOORD_0":2,
						"TANGENT":3
					},
					"indices":4,
					"material":0
				}
			]
		}
	],
	"textures":[
		{
			"sampler":0,
			"source":0
		}
	],
	"images":[
		{
			"mimeType":"image/png",
			"name":"Image_0",
			"uri":"Image_0.png"
		}
	],
	"accessors":[
		{
			"bufferView":0,
			"componentType":5126,
			"count":99501,
			"max":[
				0.40860864520072937,
				0.2495584636926651,
				0.49990901350975037
			],
			"min":[
				-0.4005718231201172,
				-0.22707965970039368,
				-0.4999160170555115
			],
			"type":"VEC3"
		},
		{
			"bufferView":1,
			"componentType":5126,
			"count":99501,
			"type":"VEC3"
		},
		{
			"bufferView":2,
			"componentType":5126,
			"count":99501,
			"type":"VEC2"
		},
		{
			"bufferView":3,
			"componentType":5126,
			"count":99501,
			"type":"VEC4"
		},
		{
			"bufferView":4,
			"componentType":5125,
			"count":99501,
			"type":"SCALAR"
		}
	],
	"bufferViews":[
		{
			"buffer":0,
			"byteLength":1194012,
			"byteOffset":0,
			"target":34962
		},
		{
			"buffer":0,
			"byteLength":1194012,
			"byteOffset":1194012,
			"target":34962
		},
		{
			"buffer":0,
			"byteLength":796008,
			"byteOffset":2388024,
			"target":34962
		},
		{
			"buffer":0,
			"byteLength":1592016,
			"byteOffset":3184032,
			"target":34962
		},
		{
			"buffer":0,
			"byteLength":398004,
			"byteOffset":4776048,
			"target":34963
		}
	],
	"samplers":[
		{
			"magFilter":9729,
			"minFilter":9987
		}
	],
	"buffers":[
		{
			"byteLength":5174052,
			"uri":"kostya-chill.bin"
		}
	]
}
